<?xml version="1.0" encoding="UTF-8"?>
<svg width="233px" height="60px" viewBox="0 0 233 60" version="1.1" xmlns="http://www.w3.org/2000/svg" xmlns:xlink="http://www.w3.org/1999/xlink">
    <title>FEE24A32-A5B4-445F-A84C-28BF97B6E7BE</title>
    <g id="main" stroke="none" stroke-width="1" fill="none" fill-rule="evenodd">
        <g id="Akinon-Commerce-Cloud" transform="translate(-86.000000, -30.000000)" fill="#D2282E">
            <g id="Group-2" transform="translate(86.000000, 30.000000)">
                <g id="akinon-logo">
                    <path d="M44.3341303,30.8833081 C43.4997531,30.1054783 42.5296046,29.4834617 41.4224503,29.0160218 C40.315296,28.5498185 39.1303817,28.3160986 37.8652389,28.3160986 C36.600096,28.3160986 35.4139474,28.5498185 34.3067931,29.0160218 C33.1996389,29.4834617 32.2294903,30.1054783 31.3963474,30.8833081 C30.5619703,31.6623746 29.9003931,32.5589194 29.411616,33.5778889 C28.9228389,34.5968584 28.6784503,35.6578727 28.6784503,36.7609319 C28.6784503,38.1471756 28.9228389,39.4196508 29.411616,40.5795943 C29.9003931,41.7407743 30.5619703,42.7436678 31.3963474,43.5932213 C32.2294903,44.4415381 33.1996389,45.1068361 34.3067931,45.5878788 C35.4139474,46.0689214 36.600096,46.3088244 37.8652389,46.3088244 C39.1303817,46.3088244 40.315296,46.0689214 41.4224503,45.5878788 C42.5296046,45.1068361 43.4997531,44.4415381 44.3341303,43.5932213 C45.1672731,42.7436678 45.8288503,41.7407743 46.3176274,40.5795943 C46.8064046,39.4196508 47.0507931,38.1471756 47.0507931,36.7609319 C47.0507931,35.6578727 46.8064046,34.5968584 46.3176274,33.5778889 C45.8288503,32.5589194 45.1672731,31.6623746 44.3341303,30.8833081 M41.0978331,20.5241972 L30.681696,0.000123661346 L0.505878857,59.4552621 L60.8562789,59.4552621 L53.750496,45.4543245 C52.9543817,46.9382607 51.9657189,48.2626737 50.7820389,49.4275635 C49.1861074,50.9980626 47.287776,52.2148903 45.0882789,53.0768099 C42.8887817,53.9399661 40.4806903,54.3715442 37.8652389,54.3715442 C35.2485531,54.3715442 32.8404617,53.9399661 30.6409646,53.0768099 C28.4414674,52.2148903 26.5443703,50.9980626 24.9484389,49.4275635 C23.3525074,47.8570645 22.1083474,45.9971978 21.2184274,43.8479636 C20.3260389,41.6974928 19.8804617,39.3219584 19.8804617,36.7176504 C19.8804617,34.3136739 20.3766446,32.1001358 21.3690103,30.0770362 C22.3601417,28.0551732 23.6907017,26.315258 25.3582217,24.8572908 C27.0257417,23.4005601 28.9438217,22.2690588 31.1161646,21.4627868 C33.2860389,20.6565149 35.5361417,20.2533789 37.8652389,20.2533789 C38.9600503,20.2533789 40.0375817,20.3461249 41.0978331,20.5241972" id="Fill-4"></path>
                </g>
                <path d="M92.6936026,44.4243641 L97.5873187,44.4243641 L85.4114859,15.5756359 L81.1758327,15.5756359 L69,44.4243641 L73.8970565,44.4243641 L76.5693929,37.8714859 L90.0212662,37.8714859 L92.6936026,44.4243641 Z M78.2162202,33.8788487 L81.9174061,24.8460509 C82.5353839,23.2797858 83.2335318,21.0943775 83.2736168,21.0943775 L83.3137019,21.0943775 C83.3571273,21.0943775 84.0552752,23.2797858 84.673253,24.8460509 L88.3744389,33.8788487 L78.2162202,33.8788487 Z M125.860638,44.4243641 L113.314018,27.5267738 L125.246,15.5756359 L119.690881,15.5756359 L110.845448,24.3975904 C108.376877,26.8674699 106.402688,28.9692102 106.359263,28.9692102 L106.319178,28.9692102 C106.279093,28.9692102 106.402688,26.9511379 106.402688,22.2958501 L106.402688,15.5756359 L101.839674,15.5756359 L101.839674,44.4243641 L106.402688,44.4243641 L106.402688,34.4912985 L110.31098,30.5354752 L120.512625,44.4243641 L125.860638,44.4243641 Z M130.687545,44.4243641 L135.25056,44.4243641 L135.25056,15.5756359 L130.687545,15.5756359 L130.687545,44.4243641 Z M162.171009,15.5756359 L162.171009,27.8580991 C162.171009,32.3895582 162.294604,36.6365462 162.251179,36.6365462 L162.211094,36.6365462 C162.171009,36.6365462 159.288226,32.5970549 157.230527,29.7958501 L146.654755,15.5756359 L142.382358,15.5756359 L142.382358,44.4243641 L146.942032,44.4243641 L146.942032,32.1854083 C146.942032,27.0348059 146.818436,23.1593039 146.861862,23.1593039 L146.901947,23.1593039 C146.942032,23.1593039 149.413943,26.7436412 151.962684,30.2476573 L162.458285,44.4243641 L166.730683,44.4243641 L166.730683,15.5756359 L162.171009,15.5756359 Z M172.466185,30 C172.466185,38.6981258 179.123643,45 187.397864,45 C195.668746,45 202.369629,38.6981258 202.369629,30 C202.369629,21.3018742 195.668746,15 187.397864,15 C179.123643,15 172.466185,21.3018742 172.466185,30 L172.466185,30 Z M177.149454,30 C177.149454,23.6914324 181.471958,19.4879518 187.397864,19.4879518 C193.280345,19.4879518 197.642934,23.6914324 197.642934,30 C197.642934,36.2248996 193.280345,40.5153949 187.397864,40.5153949 C181.471958,40.5153949 177.149454,36.2248996 177.149454,30 L177.149454,30 Z M227.766846,15.5756359 L227.766846,27.8580991 C227.766846,32.3895582 227.890442,36.6365462 227.850357,36.6365462 L227.810272,36.6365462 C227.766846,36.6365462 224.887404,32.5970549 222.829705,29.7958501 L212.253933,15.5756359 L207.978195,15.5756359 L207.978195,44.4243641 L212.54121,44.4243641 L212.54121,32.1854083 C212.54121,27.0348059 212.417614,23.1593039 212.457699,23.1593039 L212.497784,23.1593039 C212.54121,23.1593039 215.00978,26.7436412 217.561862,30.2476573 L228.054122,44.4243641 L232.329861,44.4243641 L232.329861,15.5756359 L227.766846,15.5756359 Z" id="Fill-1"></path>
            </g>
        </g>
    </g>
</svg>